<svg width="320" height="100" viewBox="0 0 520 164" fill="none" xmlns="http://www.w3.org/2000/svg">
  <path fill-rule="evenodd" clip-rule="evenodd" d="M62.7498 0.229078C61.3748 0.332078 58.1118 0.660078 55.4998 0.956078C52.8878 1.25208 48.8378 1.93408 46.4998 2.47308C44.1618 3.01108 40.4498 4.03708 38.2498 4.75408C36.0498 5.47108 32.2598 7.03608 29.8278 8.23308C27.3958 9.43008 24.0208 11.4001 22.3278 12.6101C20.6348 13.8201 17.9958 16.0181 16.4638 17.4951C14.9308 18.9721 12.6688 21.5511 11.4368 23.2261C10.2048 24.9011 8.36679 27.9521 7.35279 30.0051C6.33779 32.0581 5.01579 35.5251 4.41579 37.7091C3.51379 40.9881 3.31779 43.0741 3.28879 49.6801C3.26179 55.9611 3.45279 58.4321 4.18079 61.1801C4.69079 63.1051 5.97579 66.4361 7.03779 68.5811C8.09879 70.7261 9.43679 73.0891 10.0108 73.8311C10.5848 74.5731 12.3358 76.5081 13.9018 78.1301C15.4678 79.7531 18.6078 82.3001 20.8798 83.7901C23.1518 85.2801 26.6388 87.2501 28.6298 88.1681C30.6208 89.0851 34.6118 90.6671 37.4998 91.6821C40.3878 92.6971 50.6248 95.5001 60.2498 97.9111C69.8748 100.322 79.5088 103.027 81.6588 103.923C83.8088 104.819 86.8708 106.422 88.4638 107.485C90.0568 108.549 91.9618 110.329 92.6978 111.441C93.4338 112.553 94.2318 114.512 94.4708 115.792C94.7098 117.072 94.7958 118.921 94.6608 119.9C94.5268 120.879 94.1728 122.355 93.8748 123.18C93.5768 124.005 92.5618 125.644 91.6188 126.822C90.6758 128 88.7458 129.633 87.3278 130.451C85.9098 131.268 83.2878 132.369 81.4998 132.897C79.7118 133.424 76.5198 134.126 74.4048 134.457C71.9448 134.841 67.4418 134.966 61.9048 134.803C55.8718 134.627 51.5828 134.217 47.7498 133.45C44.7248 132.845 39.7748 131.557 36.7498 130.586C33.7248 129.616 28.7458 127.638 25.6858 126.19C22.6258 124.743 18.4968 122.506 16.5088 121.22C14.5208 119.934 12.6668 118.958 12.3878 119.05C12.1098 119.143 9.21179 125.173 5.95079 132.45C2.68879 139.727 0.0157922 145.943 0.0097789 146.266C0.00479224 146.588 1.40579 147.784 3.12479 148.924C4.84379 150.063 8.72479 152.199 11.7498 153.67C14.7748 155.14 19.2748 157.051 21.7498 157.917C24.2248 158.783 28.8378 160.142 31.9998 160.939C35.1618 161.735 39.9028 162.75 42.5348 163.192C46.4968 163.859 50.4998 163.966 65.7848 163.815L84.2498 163.633L89.9998 162.091C93.1618 161.244 97.7058 159.758 100.098 158.79C102.489 157.822 106.206 155.983 108.357 154.704C110.508 153.424 113.692 151.171 115.435 149.696C117.177 148.222 119.721 145.703 121.088 144.098C122.455 142.493 124.42 139.718 125.455 137.93C126.49 136.142 127.819 133.443 128.408 131.93C128.998 130.417 129.842 127.83 130.284 126.18C130.727 124.53 131.204 120.48 131.344 117.18C131.547 112.397 131.398 110.211 130.609 106.401C130.065 103.773 128.839 99.9481 127.885 97.9011C126.932 95.8551 125.059 92.7381 123.724 90.9751C122.388 89.2131 119.531 86.3751 117.374 84.6701C115.217 82.9641 111.27 80.4411 108.602 79.0631C105.933 77.6851 102.175 75.9691 100.25 75.2511C98.3248 74.5331 94.8378 73.3651 92.4998 72.6571C90.1618 71.9481 82.2328 69.9291 74.8788 68.1711C67.5248 66.4131 59.8748 64.4941 57.8788 63.9051C55.8828 63.3171 52.4288 61.9881 50.2028 60.9521C47.9768 59.9161 45.2038 58.2081 44.0418 57.1581C42.8788 56.1071 41.4428 54.3331 40.8498 53.2141C40.0198 51.6461 39.7858 50.3771 39.8288 47.6801C39.8668 45.3311 40.2268 43.3981 40.9258 41.8021C41.4978 40.4951 42.9548 38.4701 44.1628 37.3021C45.3708 36.1351 47.5728 34.5731 49.0548 33.8311C50.5368 33.0891 53.0998 32.1291 54.7498 31.6981C56.3998 31.2681 60.3938 30.6561 63.6248 30.3391C68.1188 29.8971 70.9388 29.9021 75.6248 30.3601C78.9928 30.6891 84.3378 31.5351 87.4998 32.2401C90.6618 32.9451 95.3878 34.3121 97.9998 35.2781C100.612 36.2431 105.146 38.2291 108.075 39.6921L113.4 42.3501L114.488 39.7651C115.087 38.3431 117.596 32.1421 120.065 25.9851C122.533 19.8271 124.452 14.5241 124.328 14.2011C124.204 13.8781 121.547 12.3451 118.426 10.7961C115.304 9.24608 110.725 7.27808 108.25 6.42108C105.775 5.56408 101.539 4.30308 98.8368 3.61808C96.1348 2.93308 91.0378 1.94908 87.5088 1.43108C83.9798 0.913078 77.5278 0.389078 73.1718 0.266078C68.8148 0.143078 64.1248 0.126078 62.7498 0.229078Z" fill="white"/>
  <path fill-rule="evenodd" clip-rule="evenodd" d="M147.5 82.6802V162.43H165.75H184V82.6802V2.93018H165.75H147.5V82.6802Z" fill="white"/>
  <path fill-rule="evenodd" clip-rule="evenodd" d="M191.127 3.79918C191.262 4.28318 206.5 39.8932 224.99 82.9302C243.479 125.967 258.719 161.462 258.857 161.805C259.05 162.289 263.195 162.43 277.214 162.43H295.321L328.502 85.3052C346.751 42.8872 362.201 6.99918 362.835 5.55518L363.987 2.93018H345.615H327.242L302.995 59.4472C285.855 99.4032 278.616 115.759 278.294 115.263C278.042 114.876 267.224 89.4992 254.253 58.8702L230.67 3.18018L210.776 3.04918C191.983 2.92518 190.894 2.96718 191.127 3.79918ZM412.234 2.93018L430.492 2.94418L448.75 2.95918L484 82.2792C503.388 125.905 519.326 161.789 519.419 162.021C519.492 162.202 514.226 162.321 506.83 162.33L504.836 162.33C503.342 162.328 501.778 162.322 500.169 162.311L480.75 162.18L466.744 128.18L430.177 128.052C424.09 128.031 418.945 128.018 414.613 128.017L412.805 128.017C397.956 128.023 393.509 128.174 393.357 128.552C393.218 128.898 390.7 135.03 387.76 142.18C387.705 142.313 387.651 142.445 387.596 142.578L387.105 143.772C384.377 150.408 381.677 156.96 380.911 158.805L379.406 162.43H360.645C360.469 162.43 360.294 162.43 360.121 162.43L357.648 162.429C357.491 162.429 357.335 162.429 357.181 162.429L356.277 162.428C343.865 162.415 342.131 162.32 342.092 161.717V161.673C342.093 161.665 342.093 161.658 342.094 161.65L342.102 161.604C342.105 161.588 342.108 161.572 342.113 161.555C342.239 161.074 358.068 125.187 377.289 81.8052L412.234 2.93018ZM430.562 40.3092C430.344 39.7352 426.056 49.5972 417.99 69.2192C411.258 85.5992 405.675 99.2092 405.583 99.4652C405.485 99.7377 414.522 99.9177 428.754 99.9296L429.755 99.9301L430.262 99.9302C430.458 99.9302 430.654 99.9302 430.848 99.9301L432.554 99.9295C432.739 99.9294 432.923 99.9293 433.105 99.9292L434.183 99.9282C450.628 99.9102 455.041 99.7655 454.858 99.3052C454.721 98.9622 449.272 85.7422 442.75 69.9302C436.228 54.1182 430.744 40.7882 430.562 40.3092Z" fill="white"/>
</svg>
